# xmcd CD database file
#
# Track frame offsets:
#	150
#	61630
#	94102
#	167466
#	228358
#
# Disc length: 3572 seconds
#
# Revision: 0
# Processed by: cddbd v1.5.2PL0 Copyright (c) Steve Scherf et al.
# Submitted via: CDex 1.70beta2
#
DISCID=2d0df205
DTITLE=New Connection - New Connection feat. Greg Osby
DYEAR=2001
DGENRE=Jazz
TTITLE0=Intuition
TTITLE1=Things
TTITLE2=Approach
TTITLE3=Trafiction
TTITLE4=To you
EXTD=YEAR: 2001
EXTT0=
EXTT1=
EXTT2=
EXTT3=
EXTT4=
PLAYORDER=
